<?xml version="1.0" encoding="utf-8"?>
<?xml-stylesheet type="text/xsl" href="rss1.xsl"?>
<rss version="2.0" xmlns:atom="http://www.w3.org/2005/Atom" xmlns:content="http://purl.org/rss/1.0/modules/content/" xmlns:dc="http://purl.org/dc/elements/1.1/" xmlns:media="http://search.yahoo.com/mrss/">
<channel>
 <title>Getty</title>
 <link>http://www.gettyimg.com/</link>
 <atom:link href="http://www.gettyimg.com/" rel="self" type="application/rss+xml" />

 
                <item>
                <title><![CDATA[【Music Videos】Jennifer Lopez - Jenny On The Block (Promo Only) [VOB]]]></title>
                <link><![CDATA[https://sharemania.us/threads/jennifer-lopez-jenny-on-the-block-promo-only-vob.244571/]]></link>
                <description><![CDATA[<article>
<blockquote class="messageText SelectQuoteContainer ugc baseHtml">
<img src="https://i.ibb.co/ZWxW3Ck/jenn.jpg" class="bbCodeImage LbImage" alt="[​IMG]" data-url="https://i.ibb.co/ZWxW3Ck/jenn.jpg" style=""> <br>
<br>
<br>
<div class="bbCodeBlock bbCodeVfcHH HiddenContent">
<div class="attribution type">Hidden Content:</div>
<blockquote>You must reply before you can see the hidden data contained here.</blockquote>
</div>
<div class="messageTextEndMarker">&nbsp;</div>
</blockquote>
</article>]]></description>
                <author><![CDATA[darkboy12]]></author>
                </item>

                
                <item>
                <title><![CDATA[【PRORES HD】Nobeat, KHEA - Medio Crazy (Director's cut) [ProRes 4K]]]></title>
                <link><![CDATA[https://sharemania.us/threads/nobeat-khea-medio-crazy-directors-cut-prores-4k.244568/]]></link>
                <description><![CDATA[<article>
<blockquote class="messageText SelectQuoteContainer ugc baseHtml">
<div style="text-align: center"><img src="https://i.ibb.co/ZgKh7B7/20240517144111.gif" class="bbCodeImage LbImage" alt="[​IMG]" data-url="https://i.ibb.co/ZgKh7B7/20240517144111.gif" style=""><br>
​</div>
<div class="ToggleTriggerAnchor bbCodeSpoilerContainer">
<button type="button" class="button bbCodeSpoilerButton ToggleTrigger Tooltip JsOnly" data-target="> .SpoilerTarget"><span>Spoiler: <span class="SpoilerTitle">ProRes</span></span></button>
<div class="SpoilerTarget bbCodeSpoilerText">
<div class="bbCodeBlock bbCodeCode">
<div class="type">Code:</div>
<pre>General
Complete name                            : Nobeat, KHEA - Medio Crazy (Director's cut).mp4
Format                                   : MPEG-4
Format profile                           : QuickTime
Codec ID                                 : qt   2005.03 (qt  )
File size                                : 17.6 GiB
Duration                                 : 3 min 37 s
Overall bit rate mode                    : Variable
Overall bit rate                         : 696 Mb/s
Frame rate                               : 23.976 FPS
Encoded date                             : 2021-07-27 15:01:09 UTC
Tagged date                              : 2021-07-27 15:22:36 UTC
Writing library                          : Apple QuickTime
TIM                                      : 00:01:05:16
TSC                                      : 24000
TSZ                                      : 1001

Video
ID                                       : 1
Format                                   : ProRes
Format version                           : Version 0
Format profile                           : 422 HQ
Codec ID                                 : apch
Duration                                 : 3 min 37 s
Bit rate mode                            : Variable
Bit rate                                 : 695 Mb/s
Width                                    : 3 840 pixels
Height                                   : 2 160 pixels
Display aspect ratio                     : 16:9
Frame rate mode                          : Constant
Frame rate                               : 23.976 (24000/1001) FPS
Color space                              : YUV
Chroma subsampling                       : 4:2:2
Scan type                                : Progressive
Bits/(Pixel*Frame)                       : 3.493
Stream size                              : 17.6 GiB (100%)
Writing library                          : Apple
Language                                 : English
Encoded date                             : 2021-07-27 15:01:09 UTC
Tagged date                              : 2021-07-27 15:01:09 UTC
Color primaries                          : BT.709
Transfer characteristics                 : BT.709
Matrix coefficients                      : BT.709

Audio
ID                                       : 2
Format                                   : PCM
Format settings                          : Little / Signed
Codec ID                                 : sowt
Duration                                 : 3 min 37 s
Bit rate mode                            : Constant
Bit rate                                 : 1 536 kb/s
Channel(s)                               : 2 channels
Channel layout                           : L R
Sampling rate                            : 48.0 kHz
Bit depth                                : 16 bits
Stream size                              : 39.8 MiB (0%)
Language                                 : English
Encoded date                             : 2021-07-27 15:01:09 UTC
Tagged date                              : 2021-07-27 15:01:09 UTC

Other
ID                                       : 3
Type                                     : Time code
Format                                   : QuickTime TC
Duration                                 : 3 min 37 s
Frame rate                               : 23.976 (24000/1001) FPS
Time code of first frame                 : 00:01:05:16
Time code of last frame                  : 00:04:42:13
Time code, stripped                      : Yes
Language                                 : English
Encoded date                             : 2021-07-27 15:01:09 UTC
Tagged date                              : 2021-07-27 15:01:09 UTC

</pre>
</div><div style="text-align: center">​</div></div>
</div><div style="text-align: center"><br>
<div class="bbCodeBlock bbCodeVfcHH HiddenContent">
<div class="attribution type">Hidden Content:</div>
<blockquote>You must reply before you can see the hidden data contained here.</blockquote>
</div></div>
<div class="messageTextEndMarker">&nbsp;</div>
</blockquote>
</article>]]></description>
                <author><![CDATA[fstambuk]]></author>
                </item>

                
                <item>
                <title><![CDATA[【Requests】[REQ PIC] - Beyoncé- Heat (Limited Edition) CD cover art]]></title>
                <link><![CDATA[https://sharemania.us/threads/beyonc%C3%A9-heat-limited-edition-cd-cover-art.244570/]]></link>
                <description><![CDATA[<article>
<blockquote class="messageText SelectQuoteContainer ugc baseHtml">
thanks
<div class="messageTextEndMarker">&nbsp;</div>
</blockquote>
</article>]]></description>
                <author><![CDATA[MusicFanatic94]]></author>
                </item>

                
                <item>
                <title><![CDATA[【Music Videos】Anatacia - Left Alone Outside (Jason Nevins Global Club Edit) (Promo Only) [VOB]]]></title>
                <link><![CDATA[https://sharemania.us/threads/anatacia-left-alone-outside-jason-nevins-global-club-edit-promo-only-vob.244569/]]></link>
                <description><![CDATA[<article>
<blockquote class="messageText SelectQuoteContainer ugc baseHtml">
I’m looking for a high-res version of the cover art of this rare Beyoncé album: <a href="https://www.discogs.com/release/2855438-Beyonc%C3%A9-Heat" target="_blank" class="externalLink" rel="nofollow">https://www.discogs.com/release/2855438-Beyoncé-Heat</a><br>
<br>
Anything that I’ve been able to find online so far is low quality. Was hoping someone who owned the CD themselves could’ve scanned and uploaded the image.
<div class="messageTextEndMarker">&nbsp;</div>
</blockquote>
</article>]]></description>
                <author><![CDATA[darkboy12]]></author>
                </item>

                </channel></rss>